inDegrees=no
num_controls=7
num_derivatives=13
num_iterations=69
num_multipliers=7
num_parameters=0
num_slacks=7
num_states=26
objective=0.333914
objective_accelerations=0.036965
objective_balance=0.001331
objective_effort=0.027167
objective_height=0.266976
objective_ligament=0.001475
solver_duration=800.688386
status=Solve_Succeeded
success=true
DataType=double
version=3
OpenSimVersion=4.5
endheader
time	/jointset/ground_pelvis/pelvis_tilt/value	/jointset/ground_pelvis/pelvis_tx/value	/jointset/ground_pelvis/pelvis_ty/value	/jointset/hip_r/hip_flexion_r/value	/jointset/hip_r/hip_adduction_r/value	/jointset/hip_r/hip_rotation_r/value	/jointset/back/lumbar_extension/value	/jointset/patellofemoral_r/patellar_flexion_r/value	/jointset/knee_r/knee_flexion_r/value	/jointset/knee_r/knee_adduction_r/value	/jointset/knee_r/knee_rotation_r/value	/jointset/ankle_r/ankle_angle_r/value	/jointset/subtalar_r/subtalar_angle_r/value	/jointset/ground_pelvis/pelvis_tilt/speed	/jointset/ground_pelvis/pelvis_tx/speed	/jointset/ground_pelvis/pelvis_ty/speed	/jointset/hip_r/hip_flexion_r/speed	/jointset/hip_r/hip_adduction_r/speed	/jointset/hip_r/hip_rotation_r/speed	/jointset/back/lumbar_extension/speed	/jointset/patellofemoral_r/patellar_flexion_r/speed	/jointset/knee_r/knee_flexion_r/speed	/jointset/knee_r/knee_adduction_r/speed	/jointset/knee_r/knee_rotation_r/speed	/jointset/ankle_r/ankle_angle_r/speed	/jointset/subtalar_r/subtalar_angle_r/speed	/forceset/tau_hip_flexion_r	/forceset/tau_hip_adduction_r	/forceset/tau_hip_rotation_r	/forceset/tau_knee_flexion_r	/forceset/tau_ankle_angle_r	/forceset/tau_subtalar_angle_r	/forceset/tau_lumbar_extension	lambda_cid13_p0	lambda_cid14_p0	lambda_cid14_p1	lambda_cid14_p2	lambda_cid14_p3	lambda_cid14_p4	lambda_cid14_p5	/jointset/ground_pelvis/pelvis_tilt/accel	/jointset/ground_pelvis/pelvis_tx/accel	/jointset/ground_pelvis/pelvis_ty/accel	/jointset/hip_r/hip_flexion_r/accel	/jointset/hip_r/hip_adduction_r/accel	/jointset/hip_r/hip_rotation_r/accel	/jointset/back/lumbar_extension/accel	/jointset/patellofemoral_r/patellar_flexion_r/accel	/jointset/knee_r/knee_flexion_r/accel	/jointset/knee_r/knee_adduction_r/accel	/jointset/knee_r/knee_rotation_r/accel	/jointset/ankle_r/ankle_angle_r/accel	/jointset/subtalar_r/subtalar_angle_r/accel	gamma_cid13_p0	gamma_cid14_p0	gamma_cid14_p1	gamma_cid14_p2	gamma_cid14_p3	gamma_cid14_p4	gamma_cid14_p5
1.5	-0.1094971548861138	0.03818413633675861	0.8161376260012275	0.8299273436033727	-0.2264548571569283	-0.1222803300081526	-0.6250774448431423	0.9369724326137896	0.9369724326137925	-0.03632254739354036	0.1745272100067938	0.3066778732652503	0.1379502562060023	0.5214761489770157	0.2233284242917815	0.5111627928179868	-2.072123094672935	-0.0001451333247485952	-0.1730760691954115	0.8014063453185685	-1.958060499901132	-1.958060499901131	0.495273536933951	-7.437024584727333e-05	-0.5262940544967972	-0.2099435094321058	-0.1720574016420585	0.02106771410460073	0.01754076956253336	-0.2839969247576217	-0.00732701966023312	-0.008109757297236024	0.2188093449574663	-9.309745752764179	-44.69117948217587	-10.8128250665511	1.535443886787582	-1.101673491162229	-627.8618949642663	51.2051139713608	0.1461153337701608	0.5457253447789329	-0.5365690913591415	-0.9732255184336178	-0.2682042697907238	-0.6790190515369141	1.772282840538172	-1.327132779474539	-1.327132779474538	0.4517506052764696	-0.02136285685349246	-0.6752341128401234	-0.4568591640098369	1.734401349040015e-07	1.455383824964424e-07	-1.076433602108475e-06	1.522925310754807e-06	1.592390004962579e-08	3.473287941833341e-07	-8.35430362792485e-07
1.51	-0.1042754399682632	0.04044444317168484	0.8212213874871779	0.8091595259850457	-0.226470682702036	-0.1240444640470202	-0.6169765060773684	0.9173280682710051	0.9173280682710021	-0.03134532041824967	0.1745264324374432	0.3013816962420773	0.1358268745364714	0.5227870166789932	0.2287018593672873	0.5054787623660197	-2.081155951657758	-0.003028681949952585	-0.1797540485817729	0.8186539530405575	-1.970531767162155	-1.970531767162155	0.5001391976079246	-8.688480796915952e-05	-0.5328561563163612	-0.2146922028771693	-0.1642774332464387	0.01899821751358156	0.01770589154395453	-0.2805965297882275	-0.005108523258555396	-0.00878763374786842	0.2117648538298951	-10.33934964724723	-43.68159174418986	-10.76146961168262	1.334234340556626	-1.227145195124224	-622.8014432142144	51.26757679132174	0.1116106811393066	0.5284915278239731	-0.6008631571327877	-0.8256275421367031	-0.2995843504343509	-0.6624153910056509	1.681881518676655	-1.165065543025565	-1.165065543025618	0.4989567538107496	0.00820005822747685	-0.6338832088373609	-0.4777564185224574	1.647930114376263e-07	1.411595216778582e-07	-9.939003495557642e-07	1.488665976590053e-06	1.015890576856515e-08	3.430392226332304e-07	-8.043631351649579e-07
1.52	-0.09904300873484595	0.04275755214514365	0.8262450000416049	0.7883099174461466	-0.2265155745717048	-0.125875423481516	-0.6087069148782446	0.8975674028868863	0.8975674028868805	-0.02632044024515067	0.1745254088852971	0.2960224612022441	0.1336572295357363	0.5236194120900778	0.2338888519982979	0.4991330065133463	-2.088481278787785	-0.005958398237121679	-0.1864411483209311	0.8351368319884392	-1.981320708167551	-1.981320708167551	0.5048041764960158	-0.0001235668053302152	-0.5389056578288388	-0.2191961756729473	-0.1564974648508106	0.01692872092256315	0.01787101352539936	-0.2771961348188304	-0.002890026856878186	-0.009465510198500364	0.2047203627023319	-11.37127948746982	-42.67215854399164	-10.70885369477144	1.131352723231491	-1.363432035915961	-617.7368214122587	51.39105590338066	0.05042087559154184	0.5084368558798893	-0.6689141715004182	-0.6317195474743175	-0.27743780218375	-0.6808431220963049	1.619337085716699	-0.9906675283490415	-0.9906675283490433	0.4116142480999802	-0.02619634390131613	-0.572714051422878	-0.4079150341527499	1.627639221139937e-07	1.324417082592334e-07	-1.06435885597978e-06	1.376397820193752e-06	2.378828928635701e-08	3.365830298723733e-07	-8.563581379658617e-07
1.53	-0.09380469271322521	0.04512153847465365	0.8312019156443159	0.7673956651193072	-0.2265898676343658	-0.1277741979455136	-0.6002764134892041	0.877707237855874	0.8777072378558725	-0.02125075726259612	0.1745243334032059	0.290605361378285	0.1314439990866293	0.5239596200229936	0.2388707846475909	0.4921463583648816	-2.094074321433181	-0.008901746790686704	-0.1933227906792486	0.8508246579078016	-1.990422200844104	-1.990422200844104	0.5090857611848022	-9.359992334603613e-05	-0.5444230465908121	-0.2233992903534627	-0.1487032552900627	0.01469197845208238	0.01806390633884523	-0.2740625862934783	-0.0005437796492648815	-0.01023675057439817	0.1976682914895127	-12.40265075847805	-41.65037102876366	-10.70444871636718	0.9473813879493087	-1.482322750437339	-612.9674991788979	51.50032889512671	0.01320323493949203	0.4874423515359291	-0.729038858903871	-0.4788541477356416	-0.3029556953459056	-0.6929299433112571	1.522687158265407	-0.8264096476231111	-0.8264096476231525	0.4292498160530391	0.01745227064308296	-0.5275096734876479	-0.4190124819006043	1.677664940670251e-07	1.191137577030657e-07	-1.297371106316565e-06	1.181245290176433e-06	5.802419921542941e-08	3.278248020750908e-07	-9.96606760596972e-07
1.54	-0.08856549811571456	0.04753421830707296	0.8360858650210653	0.7464343308610834	-0.2266936286452426	-0.1297420098632165	-0.5916931974783256	0.857764753996034	0.857764753996034	-0.01613969458579312	0.174523529403212	0.2851358359897254	0.1291902369313372	0.5237951272678226	0.2436275525801631	0.4845397613210247	-2.097897665065112	-0.01185198788037444	-0.200248639062037	0.8656797563559379	-1.997784473933247	-1.997784473933248	0.5130801153449907	-6.927038556948529e-05	-0.54939077074891	-0.2273025169099651	-0.1409090457293051	0.01245523598160606	0.01825679915227455	-0.2709290377681269	0.001802467558348916	-0.01100799095028868	0.1906162202767025	-13.42983053423979	-40.62932919861229	-10.69952481896758	0.7625852615040543	-1.606993226958372	-608.2019194838825	51.66393750805272	-0.05051926202579288	0.4634039125357292	-0.7929039505788374	-0.2777797447811635	-0.2788163094082925	-0.6896843269904874	1.4527915914715	-0.6428236108671674	-0.6428236108671684	0.3541681423803863	-0.02732381274283158	-0.4627811306478362	-0.3479374093501602	1.732513397472033e-07	1.07059651891606e-07	-1.519529530761667e-06	9.819491797451978e-07	9.100367338592494e-08	3.145394967058732e-07	-1.113645442020586e-06
1.55	-0.0833304632980509	0.04999328961872372	0.8408907324809567	0.7254436269376824	-0.22682680071771	-0.1317798831080222	-0.5829656546495278	0.8377573754271554	0.8377573754271569	-0.01099070952826596	0.1745232284212485	0.2796194708758057	0.126899159968721	0.5231292423632351	0.2481436580931134	0.4763385822302363	-2.099945021834781	-0.01478112996690165	-0.2073113365710743	0.8796818475554536	-2.003388159830158	-2.003388159830156	0.5166832138959477	-2.704285900773792e-06	-0.5537840046492712	-0.2308599224688661	-0.1332231682903375	0.01009709693650418	0.01844510661162819	-0.2679602061450412	0.004140133443399793	-0.01185160605010333	0.1836720584408685	-14.44857961744196	-39.64227120111843	-10.73839237862558	0.5920912855449108	-1.700627744870211	-603.8099291595548	51.81085005524697	-0.0870049654324309	0.4392841327719242	-0.8479400004368307	-0.1234890112248348	-0.2998113107338539	-0.7121335671997386	1.3518736069659	-0.4737156067919859	-0.4737156067915707	0.3580816428415833	0.02196370195099741	-0.4127881944484726	-0.3519115499405878	1.792918486347464e-07	9.647323676426658e-08	-1.729182460157657e-06	7.778789440544509e-07	1.225355150519733e-07	2.960382106559479e-07	-1.20394223466165e-06
1.56	-0.07810456370158346	0.05249623603792346	0.8456107451275184	0.7044413943729539	-0.226989233841534	-0.1338878975487864	-0.5741024997641793	0.8177030450937702	0.8177030450937718	-0.005806753298949404	0.1745232564764052	0.2740621346879387	0.1245740550663596	0.5219680830283574	0.2524025740899561	0.4675687986551081	-2.100203393331052	-0.01770419815178614	-0.2142768782536873	0.8928021676659386	-2.007174826834627	-2.007174826834622	0.520074349702433	-3.462961060749946e-06	-0.5575849855383609	-0.234108104858988	-0.1255372908513594	0.007738957891403933	0.01863341407097363	-0.2649913745219549	0.006477799328450403	-0.01269522114991556	0.1767278966050442	-15.45596485883388	-38.65652978696887	-10.77775799738228	0.4219820724611063	-1.796727014606194	-599.4305130251005	52.00270093180559	-0.1495741480838196	0.4119660093142188	-0.9066248474468284	0.08001730989860263	-0.2776015290797481	-0.6702531617056675	1.276437373665317	-0.2794198323787929	-0.2794198323787928	0.3117755934860181	-0.04078876770856329	-0.3443305283934792	-0.2860927755943377	1.886286474578274e-07	8.360287192159238e-08	-2.010607728645268e-06	5.008224556252282e-07	1.644783547126441e-07	2.6425925560175e-07	-1.302407635043332e-06
1.57	-0.0728928251842763	0.05504043471388589	0.8502403348124734	0.6834455437307871	-0.227180720169003	-0.1360661051906158	-0.5651126860244858	0.7976197781308692	0.7976197781308686	-0.0005907923559758773	0.174523566233984	0.268469750171041	0.1222182285997224	0.5202903257033235	0.2563887976389371	0.4582654721150654	-2.098665330619554	-0.0205959076564091	-0.2213055480114594	0.9049992914876894	-2.00917656045242	-2.009176560452423	0.523126486075477	3.650738047856147e-05	-0.5607978319187708	-0.2370170994337276	-0.1177612368301834	0.005167783049366514	0.01881061981924436	-0.2625734476725456	0.009250124151604739	-0.01364236835928194	0.1697656701844746	-16.44971045303899	-37.5709648761074	-10.85875181509192	0.2746639552840649	-1.95202762938909	-595.5282924522463	52.22625851519182	-0.1902636409517939	0.3847462234567235	-0.9546988843367576	0.2359178709321225	-0.2956081567994098	-0.71012597446559	1.167156568672672	-0.115291299272519	-0.1152912992737175	0.3028560299621327	0.02198552009347832	-0.2955469305223361	-0.2877090980669177	2.020858087003308e-07	6.787756993474975e-08	-2.381748420997406e-06	1.325331512729119e-07	2.19434941866593e-07	2.158832142922116e-07	-1.411083795100788e-06
1.58	-0.06770054166346608	0.05762305476449148	0.8547743887666172	0.6624741171395688	-0.2274012540906473	-0.1383127899483533	-0.5560057397101257	0.7775255455972313	0.7775255455972281	0.004655874624879247	0.1745233948119774	0.2628480801428076	0.1198344309274072	0.5180770837287428	0.2600868490185881	0.448461652492853	-2.095318583141787	-0.02351371698686613	-0.2279723014353359	0.9162286825991464	-2.009367940981933	-2.009367940981945	0.5262155572784627	-9.969887764998655e-05	-0.5634420878054849	-0.2397023459945936	-0.1099851828089972	0.002596608207330943	0.01898782556751154	-0.2601555208231356	0.01202244897475908	-0.01458951556864534	0.1628034437639146	-17.42811645124451	-36.48650677568231	-10.94118919545611	0.1290033469578959	-2.105287290092365	-591.6362715919532	52.47506859235716	-0.2566710779931421	0.354331575448243	-1.006723463880744	0.4417542631525564	-0.2828214942465621	-0.5978698949265578	1.082890831606558	0.08265078527693427	0.08265078527693429	0.3191625594743731	-0.07602408764213604	-0.2306124296543541	-0.2413431728196397	2.072866293915741e-07	1.819682345494131e-08	-3.000774661940145e-06	-8.147238959484317e-07	3.297966648564012e-07	6.627939685528812e-08	-1.454052631009061e-06
